<?xml version="1.0" standalone="no"?>
<!DOCTYPE svg PUBLIC "-//W3C//DTD SVG 20010904//EN"
 "http://www.w3.org/TR/2001/REC-SVG-20010904/DTD/svg10.dtd">
<svg version="1.0" xmlns="http://www.w3.org/2000/svg"
 width="800.000000pt" height="743.000000pt" viewBox="0 0 800.000000 743.000000"
 preserveAspectRatio="xMidYMid meet">

<g transform="translate(0.000000,743.000000) scale(0.100000,-0.100000)"
fill="#000000" stroke="none">
<path d="M4953 6172 l257 -257 0 -763 0 -762 130 0 c125 0 130 1 130 21 0 12
-25 193 -55 403 -30 209 -77 545 -105 746 l-51 365 -252 253 c-217 217 -256
252 -282 252 -27 0 -8 -22 228 -258z"/>
<path d="M3459 5664 c37 -47 24 -102 -30 -129 -46 -25 -96 -5 -119 47 l-18 40
-24 -34 c-53 -70 -64 -178 -27 -255 100 -206 401 -183 465 36 46 157 -73 321
-234 321 l-33 0 20 -26z m144 -214 c5 -22 14 -31 34 -36 45 -11 48 -16 13 -28
-33 -11 -42 -21 -55 -61 -6 -17 -9 -15 -18 15 -9 27 -20 38 -47 47 -30 9 -32
12 -15 18 40 13 50 22 59 53 11 36 21 34 29 -8z m-272 20 c37 -20 18 -80 -26
-80 -42 0 -59 44 -29 74 18 19 28 20 55 6z m123 -112 c21 -30 20 -50 -5 -82
-13 -17 -30 -26 -49 -26 -31 0 -70 39 -70 69 0 35 30 61 70 61 29 0 43 -6 54
-22z"/>
<path d="M4542 5674 c42 -48 26 -120 -33 -144 -28 -12 -36 -11 -68 6 -24 12
-40 30 -47 52 l-10 32 -22 -22 c-34 -37 -52 -92 -52 -161 0 -143 103 -246 245
-246 98 0 173 44 219 129 85 157 -16 346 -197 367 -50 6 -52 5 -35 -13z m191
-262 l38 -16 -33 -10 c-22 -7 -38 -22 -48 -44 l-16 -33 -12 36 c-10 26 -21 37
-45 44 -28 7 -29 9 -12 15 41 15 50 23 60 56 l10 33 9 -33 c8 -25 19 -37 49
-48z m-308 48 c37 -41 -24 -97 -63 -58 -18 18 -15 55 6 67 25 15 37 13 57 -9z
m109 -96 c24 -24 20 -80 -6 -98 -31 -22 -58 -20 -85 6 -27 25 -29 54 -7 86 18
26 74 30 98 6z"/>
<path d="M3945 5009 c-117 -15 -206 -61 -293 -153 -127 -134 -181 -386 -83
-386 30 0 48 32 55 99 17 171 159 316 332 341 216 29 416 -125 444 -342 11
-90 39 -118 85 -85 15 12 17 24 13 88 -19 274 -270 472 -553 438z"/>
<path d="M3893 2560 c-244 -26 -416 -173 -478 -406 -37 -141 -37 -367 0 -509
53 -199 189 -338 386 -391 86 -24 280 -24 366 -1 196 52 336 193 388 392 23
87 36 239 29 325 -18 224 -94 389 -224 485 -118 86 -287 124 -467 105z m167
-339 c41 -29 58 -78 71 -203 8 -85 8 -148 0 -234 -16 -176 -50 -229 -146 -229
-96 0 -129 51 -145 228 -12 131 0 320 24 379 34 81 125 108 196 59z"/>
<path d="M2322 2163 l-192 -388 0 -137 0 -138 308 -2 307 -3 3 -127 3 -128
199 0 199 0 3 128 3 127 83 3 82 3 0 154 0 155 -85 0 -85 0 0 125 0 125 -200
0 -200 0 0 -125 0 -125 -86 0 c-47 0 -83 3 -80 8 8 13 346 724 346 728 0 2
-94 4 -208 4 l-208 0 -192 -387z"/>
<path d="M4880 2170 l-190 -380 0 -145 0 -145 305 0 304 0 3 -127 3 -128 200
0 200 0 3 128 3 127 79 0 80 0 0 155 0 155 -80 0 -80 0 0 125 0 125 -205 0
-205 0 0 -125 0 -125 -80 0 c-44 0 -80 3 -80 6 0 8 29 69 194 413 80 167 146
308 146 313 0 4 -92 8 -205 8 l-205 0 -190 -380z"/>
<path d="M2377 876 c-9 -13 -13 -27 -10 -30 7 -7 53 33 53 46 0 17 -28 7 -43
-16z"/>
<path d="M3580 880 c0 -7 -12 -9 -35 -4 -27 5 -36 3 -41 -10 -4 -9 -3 -20 1
-24 4 -4 10 -2 12 5 3 7 17 10 37 6 24 -4 35 -1 39 11 3 8 2 18 -3 21 -6 4
-10 1 -10 -5z"/>
<path d="M2552 825 c-22 -10 -38 -27 -48 -51 -40 -96 43 -181 141 -144 24 9
26 14 23 57 -3 47 -3 48 -37 48 -19 0 -36 -6 -38 -12 -3 -8 4 -13 16 -13 17 0
21 -6 21 -30 0 -26 -4 -30 -28 -30 -15 0 -38 7 -50 16 -19 13 -23 23 -20 61 2
36 9 50 30 66 24 18 32 19 63 10 31 -10 35 -9 35 7 0 30 -55 38 -108 15z"/>
<path d="M3720 833 c-54 -20 -81 -85 -60 -148 34 -103 190 -76 190 34 0 56
-15 88 -49 106 -31 15 -54 18 -81 8z m77 -49 c22 -22 25 -32 20 -67 -6 -45
-27 -67 -66 -67 -39 0 -61 27 -61 75 0 42 13 69 40 78 29 10 41 7 67 -19z"/>
<path d="M4370 822 c-71 -35 -77 -152 -10 -187 46 -24 110 -18 110 10 0 10
-10 12 -35 8 -55 -9 -85 17 -85 72 0 56 36 90 87 80 25 -4 33 -2 33 8 0 30
-49 35 -100 9z"/>
<path d="M4545 826 c-61 -27 -76 -127 -26 -177 40 -40 89 -40 133 0 29 26 33
35 33 80 0 41 -5 55 -25 76 -31 31 -76 39 -115 21z m85 -36 c25 -25 27 -95 3
-122 -16 -18 -59 -24 -79 -10 -39 26 -44 93 -9 127 29 30 58 32 85 5z"/>
<path d="M2180 725 c0 -87 3 -105 15 -105 11 0 15 11 15 40 0 38 2 40 30 40
38 0 70 31 70 68 0 41 -28 62 -83 62 l-47 0 0 -105z m97 59 c9 -24 -10 -49
-41 -52 -24 -3 -26 0 -26 32 0 33 2 36 30 36 19 0 33 -6 37 -16z"/>
<path d="M2336 734 c-40 -108 -42 -114 -22 -114 8 0 19 14 25 30 9 27 14 30
51 30 37 0 42 -3 51 -30 6 -16 17 -30 25 -30 20 0 18 6 -22 114 -27 70 -41 96
-54 96 -13 0 -27 -26 -54 -96z m72 6 c11 -29 10 -30 -18 -30 -28 0 -28 1 -18
35 13 39 22 38 36 -5z"/>
<path d="M2680 821 c0 -6 5 -13 10 -16 13 -8 13 -152 0 -160 -17 -11 0 -25 30
-25 30 0 47 14 30 25 -13 8 -13 152 0 160 22 13 8 25 -30 25 -22 0 -40 -4 -40
-9z"/>
<path d="M2780 725 c0 -85 3 -105 15 -105 11 0 15 18 17 81 l3 80 52 -80 c72
-112 83 -108 83 24 0 87 -3 105 -15 105 -12 0 -15 -15 -15 -77 l0 -78 -50 78
c-35 54 -56 77 -70 77 -19 0 -20 -6 -20 -105z"/>
<path d="M3016 737 c-20 -51 -36 -98 -36 -105 0 -24 28 -11 39 18 9 27 15 30
50 30 34 0 40 -3 50 -30 5 -16 17 -30 25 -30 21 0 21 -1 -21 111 -49 128 -59
129 -107 6z m69 1 c7 -25 5 -28 -20 -28 -22 0 -26 3 -20 18 4 9 10 25 12 35 7
23 19 11 28 -25z"/>
<path d="M3260 724 c0 -95 2 -105 18 -102 14 3 18 17 22 76 l5 72 48 -76 c68
-106 81 -101 85 34 3 96 2 102 -17 102 -18 0 -20 -8 -23 -72 l-3 -73 -45 72
c-34 54 -51 72 -67 73 -22 0 -23 -3 -23 -106z"/>
<path d="M3496 734 c-40 -108 -42 -114 -22 -114 8 0 19 14 25 30 9 27 14 30
51 30 37 0 42 -3 51 -30 6 -16 17 -30 25 -30 20 0 18 6 -22 114 -27 70 -41 96
-54 96 -13 0 -27 -26 -54 -96z m72 6 c11 -29 10 -30 -18 -30 -28 0 -28 1 -18
35 13 39 22 38 36 -5z"/>
<path d="M3960 725 l0 -105 60 0 c47 0 60 3 60 15 0 11 -11 15 -40 15 -38 0
-40 2 -40 29 0 26 4 30 33 33 20 2 32 8 32 18 0 10 -12 16 -32 18 -27 3 -33 7
-33 28 0 21 5 24 35 24 24 0 35 5 35 15 0 12 -13 15 -55 15 l-55 0 0 -105z"/>
<path d="M4110 725 c0 -87 3 -105 15 -105 12 0 15 16 15 83 l1 82 52 -82 c74
-117 87 -114 87 22 0 85 -3 105 -15 105 -11 0 -15 -17 -17 -76 l-3 -77 -48 77
c-33 52 -55 76 -68 76 -18 0 -19 -8 -19 -105z"/>
<path d="M4720 725 c0 -87 3 -105 15 -105 12 0 15 16 15 83 l0 82 53 -82 c74
-117 87 -114 87 22 0 85 -3 105 -15 105 -11 0 -15 -18 -17 -77 l-3 -78 -48 78
c-33 53 -54 77 -68 77 -18 0 -19 -8 -19 -105z"/>
<path d="M4912 818 c3 -7 17 -14 31 -16 l27 -3 0 -90 c0 -81 2 -90 18 -87 14
3 17 17 20 91 3 85 3 87 27 87 16 0 25 6 25 15 0 12 -15 15 -76 15 -56 0 -75
-3 -72 -12z"/>
<path d="M5090 726 c0 -88 3 -106 15 -106 11 0 15 12 15 45 0 60 22 60 58 0
23 -37 32 -44 59 -45 26 0 33 5 42 30 9 26 15 30 49 30 35 0 41 -4 52 -30 11
-27 40 -42 40 -21 0 5 -16 52 -36 105 -48 125 -60 126 -104 9 -18 -49 -36 -92
-40 -96 -4 -4 -18 9 -32 30 l-25 38 20 26 c17 24 18 30 6 55 -13 26 -20 29
-67 32 l-52 3 0 -105z m88 47 c-2 -22 -9 -29 -30 -31 -25 -3 -28 0 -28 27 0
28 3 31 31 31 27 0 30 -3 27 -27z m170 -33 c11 -29 10 -30 -18 -30 -28 0 -28
1 -18 35 13 39 22 38 36 -5z"/>
<path d="M5442 728 l3 -103 37 -3 c85 -7 148 56 133 134 -9 51 -46 74 -117 74
l-59 0 3 -102z m122 56 c16 -16 22 -80 8 -100 -11 -16 -48 -34 -71 -34 -19 0
-21 6 -21 75 l0 75 34 0 c19 0 42 -7 50 -16z"/>
<path d="M5697 823 c-6 -10 -77 -193 -77 -199 0 -2 7 -4 16 -4 8 0 20 14 25
30 10 27 15 30 53 30 37 0 43 -3 53 -30 6 -16 18 -30 27 -30 9 0 16 1 16 3 0
1 -18 47 -39 102 -35 91 -59 123 -74 98z m42 -105 c1 -5 -10 -8 -24 -8 -28 0
-30 4 -13 51 l11 33 13 -34 c7 -19 13 -38 13 -42z"/>
</g>
</svg>
